<svg aria-hidden="true" style="position: absolute; width: 0; height: 0; overflow: hidden;" version="1.1"
	xmlns="http://www.w3.org/2000/svg" xmlns:xlink="http://www.w3.org/1999/xlink">
	<defs>
		<symbol id="icon-logoevent" viewBox="0 0 64 32">
			<path
				d="M19.962 24.133c-0.601-1.67-1.837-2.504-3.708-2.505h-0.591v10.299h0.591c1.446 0 2.514-0.57 3.203-1.711 0.58-0.973 0.871-2.212 0.871-3.715-0.001-0.895-0.123-1.684-0.365-2.368zM9.828 24.256c0.601 1.67 1.837 2.504 3.708 2.504h0.591v-10.3h-0.591c-1.447 0-2.514 0.57-3.203 1.711-0.579 0.973-0.868 2.212-0.868 3.715 0 0.894 0.121 1.683 0.364 2.369zM0 0.013h7.858v2.728h-5.037v1.364h4.184v2.588h-4.184v1.379h5.037v2.728h-7.858v-10.787zM11.809 0h10.167l-5.084 11.019-5.083-11.019zM16.893 9.656l4.2-9.082h-8.385l4.185 9.082zM26.037 0.013h7.858v2.728h-5.037v1.364h4.184v2.588h-4.184v1.379h5.037v2.728h-7.858v-10.787zM38.73 10.784v-10.784h0.605l7.532 7.331v-7.331h0.573v10.787l-8.71-0.002zM55.671 10.8v-8.059h-4.076v-2.728h8.71v2.728h-4.076v8.059h-0.558zM4.633 18.611c0.682 0 1.224 0.104 1.627 0.31 0.907 0.45 1.519 1.369 1.519 2.432 0 0.017-0 0.034-0 0.051l0-0.003c0 0.004 0 0.010 0 0.015 0 0.515-0.15 0.995-0.409 1.398l0.006-0.010c-0.273 0.43-0.645 0.774-1.085 1.008l-0.016 0.008c0.574 0.206 1.052 0.56 1.405 1.016l0.005 0.007c0.357 0.44 0.574 1.008 0.574 1.626 0 0.006-0 0.012-0 0.018v-0.001c0 0.006 0 0.014 0 0.021 0 0.54-0.153 1.044-0.418 1.471l0.007-0.012c-0.27 0.444-0.639 0.803-1.078 1.054l-0.015 0.008c-0.219 0.12-0.473 0.216-0.74 0.276l-0.019 0.004c-0.279 0.062-0.651 0.093-1.115 0.093h-4.775v-10.786h4.526zM22.806 28.616c-0.811-0.708-1.211-1.769-1.201-3.185h2.526c-0.010 0.589 0.165 1.039 0.527 1.348s0.868 0.465 1.519 0.465c0.537 0 0.961-0.088 1.271-0.264s0.465-0.444 0.465-0.806c0-0.3-0.158-0.517-0.473-0.651-0.269-0.12-0.583-0.219-0.91-0.283l-0.028-0.005c-0.31-0.056-0.501-0.091-0.574-0.104-0.791-0.148-1.482-0.345-2.147-0.596l0.085 0.028c-0.58-0.219-1.069-0.564-1.453-1.003l-0.004-0.004c-0.392-0.455-0.589-1.054-0.589-1.798s0.196-1.377 0.589-1.898c0.392-0.522 0.917-0.912 1.573-1.17 0.685-0.264 1.413-0.395 2.146-0.387 0.94 0 1.754 0.176 2.441 0.527s1.227 0.883 1.619 1.596c0.182 0.301 0.304 0.636 0.357 0.984 0.040 0.306 0.061 0.614 0.062 0.922h-2.527c0-0.558-0.15-0.969-0.449-1.232s-0.765-0.395-1.395-0.395c-0.506 0-0.899 0.088-1.178 0.264s-0.419 0.414-0.419 0.713c0 0.331 0.186 0.574 0.558 0.728 0.396 0.163 0.868 0.307 1.356 0.409l0.054 0.010c0.93 0.186 1.656 0.364 2.178 0.535 0.543 0.182 1.001 0.495 1.353 0.902l0.003 0.004c0.382 0.434 0.573 1.044 0.573 1.829 0 0.744-0.207 1.384-0.62 1.922s-0.959 0.948-1.635 1.232c-0.695 0.288-1.441 0.433-2.193 0.426-1.498-0.002-2.653-0.357-3.464-1.064zM37.072 29.398v-8.059h-4.076v-2.727h8.711v2.728h-4.076v8.059h-0.558zM44.635 18.611h7.858v2.728h-5.037v1.364h4.185v2.588h-4.185v1.379h5.037v2.728h-7.858v-10.786zM64.132 29.398h-8.292v-10.786h4.2c0.899 0 1.632 0.16 2.201 0.48 0.547 0.301 0.988 0.733 1.293 1.255l0.009 0.016c0.292 0.5 0.465 1.101 0.465 1.743 0 0.014-0 0.028-0 0.042l0-0.002c0 0.010 0 0.021 0 0.033 0 0.808-0.28 1.551-0.749 2.136l0.005-0.007c-0.463 0.605-1.107 1.051-1.851 1.257l-0.025 0.006 2.744 3.828zM56.414 19.557v5.563h3.983l-3.983-5.564zM56.414 28.825h6.633l-2.263-3.146-0.48 0.016h-3.89v3.131zM56.817 19.184l4.216 5.889c0.699-0.143 1.293-0.515 1.716-1.033l0.004-0.005c0.424-0.498 0.682-1.149 0.682-1.86 0-0.011-0-0.022-0-0.032v0.002c0-0.010 0-0.022 0-0.033 0-0.56-0.156-1.084-0.426-1.53l0.007 0.013c-0.282-0.464-0.683-0.83-1.161-1.062l-0.016-0.007c-0.455-0.227-1.048-0.341-1.782-0.341h-3.239z">
			</path>
		</symbol>
		<symbol  id="icon-polygon" viewBox="0 0 52 32">
			<path  d="M26 32l-25.98-30h51.96l-25.98 30z"></path>
		</symbol>
		<symbol id="icon-search" viewBox="0 0 32 32">
			<path 
				d="M4.024 4.024c2.472-2.486 5.895-4.024 9.677-4.024 0.013 0 0.026 0 0.040 0h-0.002c3.669 0 7.12 1.429 9.715 4.024 2.487 2.473 4.027 5.896 4.027 9.68 0 0.012-0 0.025-0 0.037v-0.002c0 0.010 0 0.023 0 0.035 0 3.453-1.284 6.607-3.4 9.010l0.013-0.015 7.632 7.629c0.17 0.17 0.275 0.405 0.275 0.664 0 0.519-0.42 0.939-0.939 0.939-0.259 0-0.494-0.105-0.664-0.275l-7.629-7.629c-2.387 2.1-5.538 3.381-8.988 3.381-0.014 0-0.029-0-0.043-0h0.002c-0.010 0-0.023 0-0.035 0-3.782 0-7.205-1.538-9.677-4.023l-0.001-0.001c-2.487-2.473-4.027-5.896-4.027-9.68 0-0.012 0-0.025 0-0.037v0.002c0-3.669 1.429-7.12 4.024-9.715zM5.352 22.128c2.148 2.143 5.113 3.468 8.387 3.468s6.239-1.325 8.387-3.468l-0 0c2.144-2.148 3.469-5.113 3.469-8.388s-1.326-6.24-3.47-8.388l0 0c-2.14-2.143-5.099-3.469-8.367-3.469-0.006 0-0.012 0-0.018 0h0.001c-0.006 0-0.014-0-0.021-0-3.267 0-6.225 1.325-8.365 3.467l-0 0c-2.145 2.148-3.471 5.114-3.471 8.389s1.326 6.241 3.471 8.389l-0-0z">
			</path>
		</symbol>
		<symbol id="icon-vectorlocation" viewBox="0 0 22 32">
			<path 
				d="M11.2 0c-6.176 0-11.2 4.992-11.2 11.123 0 7.709 11.21 20.877 11.21 20.877s11.19-13.549 11.19-20.877c0-6.134-5.024-11.123-11.2-11.123zM14.579 14.381c-0.931 0.925-2.157 1.386-3.379 1.386s-2.448-0.461-3.379-1.386c-0.863-0.857-1.398-2.045-1.398-3.357s0.534-2.5 1.397-3.357l0-0c0.902-0.896 2.102-1.389 3.379-1.389s2.477 0.493 3.379 1.389c1.862 1.853 1.862 4.864 0 6.714z">
			</path>
		</symbol>
		<symbol id="icon-facebook" viewBox="0 0 32 32">
			<path
				d="M21.328 5.312h2.923v-5.088c-1.232-0.143-2.66-0.224-4.107-0.224-0.052 0-0.104 0-0.157 0l0.008-0c-4.213 0-7.099 2.65-7.099 7.52v4.48h-4.646v5.688h4.646v14.312h5.699v-14.31h4.459l0.709-5.688h-5.17v-3.922c0-1.643 0.443-2.768 2.734-2.768z">
			</path>
		</symbol>

		<symbol id="icon-instagram" viewBox="0 0 32 32">
			<path
				d="M31.968 9.408c-0.074-1.701-0.349-2.869-0.742-3.882-0.424-1.111-1.054-2.059-1.85-2.837l-0.001-0.001c-0.78-0.792-1.724-1.419-2.778-1.827l-0.054-0.018c-1.019-0.394-2.181-0.667-3.882-0.742-1.712-0.082-2.256-0.101-6.602-0.101-4.344 0-4.888 0.019-6.595 0.094-1.699 0.074-2.869 0.349-3.88 0.742-1.112 0.424-2.060 1.054-2.839 1.85l-0.001 0.001c-0.791 0.78-1.418 1.724-1.825 2.778l-0.018 0.054c-0.395 1.019-0.669 2.181-0.744 3.882-0.082 1.712-0.101 2.256-0.101 6.602 0 4.344 0.019 4.888 0.094 6.595 0.075 1.701 0.35 2.869 0.744 3.882 0.426 1.11 1.055 2.057 1.849 2.837l0.001 0.001c0.8 0.813 1.77 1.443 2.832 1.843 1.019 0.395 2.182 0.67 3.882 0.744 1.707 0.075 2.251 0.094 6.595 0.094 4.346 0 4.89-0.019 6.595-0.094 1.701-0.074 2.869-0.349 3.882-0.742 2.157-0.85 3.833-2.526 4.664-4.628l0.019-0.055c0.394-1.019 0.669-2.182 0.744-3.882 0.075-1.707 0.093-2.251 0.093-6.595s-0.006-4.888-0.080-6.595zM29.088 22.474c-0.070 1.563-0.333 2.406-0.55 2.97-0.552 1.399-1.64 2.486-3.004 3.024l-0.036 0.012c-0.56 0.219-1.411 0.482-2.968 0.55-1.688 0.075-2.194 0.094-6.464 0.094-4.269 0-4.782-0.019-6.464-0.094-1.563-0.069-2.406-0.331-2.97-0.55-0.721-0.269-1.334-0.676-1.836-1.192l-0.001-0.001c-0.517-0.503-0.924-1.117-1.184-1.803l-0.011-0.034c-0.218-0.563-0.48-1.413-0.549-2.97-0.075-1.688-0.094-2.195-0.094-6.464 0-4.27 0.019-4.784 0.094-6.464 0.069-1.563 0.331-2.406 0.549-2.97 0.269-0.722 0.678-1.337 1.198-1.837l0.002-0.002c0.504-0.517 1.119-0.923 1.806-1.182l0.034-0.011c0.56-0.219 1.411-0.48 2.968-0.55 1.688-0.074 2.195-0.093 6.464-0.093 4.275 0 4.782 0.019 6.464 0.093 1.563 0.069 2.406 0.331 2.97 0.55 0.693 0.256 1.325 0.662 1.837 1.194 0.531 0.52 0.938 1.144 1.195 1.84 0.218 0.56 0.48 1.411 0.549 2.968 0.075 1.688 0.094 2.194 0.094 6.464 0 4.269-0.019 4.768-0.094 6.458z">
			</path>
			<path
				d="M16.059 7.782c-4.539 0.002-8.218 3.682-8.219 8.221v0c0.091 4.471 3.737 8.060 8.221 8.060s8.13-3.589 8.221-8.052l0-0.009c-0.001-4.54-3.681-8.22-8.221-8.221h-0zM16.059 21.334c-2.945-0-5.332-2.388-5.332-5.333s2.388-5.333 5.333-5.333c0 0 0.001 0 0.001 0h-0c2.946 0 5.334 2.388 5.334 5.334s-2.388 5.334-5.334 5.334v0zM26.525 7.458c0 1.060-0.86 1.92-1.92 1.92s-1.92-0.86-1.92-1.92v0c0-1.060 0.86-1.92 1.92-1.92s1.92 0.86 1.92 1.92v0z">
			</path>
		</symbol>
		<symbol id="icon-linkedin" viewBox="0 0 32 32">
			<path
				d="M31.992 32h0.008v-11.738c0-5.741-1.235-10.163-7.947-10.163-3.227 0-5.392 1.77-6.277 3.45h-0.093v-2.914h-6.365v21.363h6.627v-10.578c0-2.786 0.528-5.48 3.978-5.48 3.398 0 3.45 3.179 3.45 5.658v10.402h6.619zM0.528 10.635h6.635v21.365h-6.635v-21.365zM3.843 0c-2.123 0-3.843 1.721-3.843 3.843v0c0 2.12 1.722 3.878 3.843 3.878 2.12 0 3.842-1.757 3.842-3.878s-1.72-3.841-3.841-3.843h-0z">
			</path>
		</symbol>

		<symbol id="icon-twitter" viewBox="0 0 36 32">
			<path
				d="M35.556 4.976c-1.222 0.548-2.64 0.952-4.125 1.142l-0.076 0.008c1.511-0.907 2.646-2.309 3.193-3.977l0.015-0.051c-1.331 0.803-2.879 1.415-4.529 1.748l-0.093 0.016c-1.333-1.421-3.223-2.306-5.319-2.306-4.025 0-7.287 3.263-7.287 7.287 0 0.001 0 0.003 0 0.004v-0c0 0.578 0.048 1.134 0.169 1.662-6.060-0.295-11.422-3.2-15.024-7.623-0.627 1.055-0.999 2.324-1.003 3.681v0.001c0 2.524 1.301 4.763 3.237 6.059-1.212-0.033-2.341-0.361-3.327-0.915l0.036 0.019v0.080c0.005 3.515 2.486 6.449 5.792 7.152l0.048 0.009c-0.556 0.153-1.195 0.24-1.854 0.24-0.020 0-0.040-0-0.061-0l0.003 0c-0.466 0-0.937-0.027-1.38-0.124 0.944 2.887 3.623 5.010 6.811 5.077-2.461 1.94-5.606 3.111-9.025 3.111-0.005 0-0.009 0-0.014 0h0.001c-0.020 0-0.045 0-0.069 0-0.59 0-1.172-0.038-1.743-0.11l0.068 0.007c3.14 2.051 6.986 3.271 11.116 3.271 0.023 0 0.047-0 0.070-0h-0.004c13.413 0 20.747-11.111 20.747-20.743 0-0.32-0.011-0.633-0.027-0.942 1.443-1.040 2.656-2.293 3.62-3.727l0.033-0.052z">
			</path>
		</symbol>

		<symbol id="icon-ticket2" viewBox="0 0 44 32">
			<path
				d="M4.91 1.269h-4.91v29.461h4.91v-29.461zM17.26 1.269h-4.911v29.461h4.911v-29.461zM24.699 1.269h-4.91v29.461h4.91v-29.461zM44.19 1.269h-7.291v29.461h7.291v-29.461zM9.819 1.269h-2.38v29.461h2.38v-29.461zM29.46 1.269h-2.38v29.461h2.38v-29.461zM34.37 1.269h-2.38v29.461h2.382v-29.461z">
			</path>
		</symbol>
		<symbol id="icon-ticket1" viewBox="0 0 44 32">
			<path
				d="M4.91 1.269h-4.91v29.461h4.91v-29.461zM17.26 1.269h-4.911v29.461h4.911v-29.461zM24.699 1.269h-4.91v29.461h4.91v-29.461zM44.19 1.269h-7.291v29.461h7.291v-29.461zM9.819 1.269h-2.38v29.461h2.38v-29.461zM29.46 1.269h-2.38v29.461h2.38v-29.461zM34.37 1.269h-2.38v29.461h2.382v-29.461z">
			</path>
		</symbol>
		<symbol id="icon-close" viewBox="0 0 32 32">
			<path
				d="M30.354 32c0.909-0.001 1.645-0.737 1.645-1.646 0-0.455-0.184-0.866-0.483-1.164l-28.704-28.709c-0.298-0.298-0.71-0.482-1.164-0.482-0.909 0-1.647 0.737-1.647 1.647 0 0.455 0.184 0.866 0.482 1.164l28.708 28.708c0.322 0.32 0.743 0.484 1.164 0.484z">
			</path>
			<path
				d="M1.644 32c0.421 0 0.843-0.16 1.164-0.484l28.709-28.706c0.298-0.298 0.482-0.71 0.482-1.164 0-0.909-0.737-1.647-1.647-1.647-0.455 0-0.866 0.184-1.164 0.482l-28.709 28.709c-0.297 0.298-0.481 0.709-0.481 1.163 0 0.909 0.736 1.646 1.645 1.646h0z">
			</path>
		</symbol>
	</defs>
</svg>